<svg xmlns="http://www.w3.org/2000/svg" width="4096" height="4096" viewBox="0 0 4096 4096" version="1.1"><path d="M 1999.500 1083.097 C 1989.050 1083.531, 1975.775 1084.375, 1970 1084.972 C 1964.225 1085.569, 1954.775 1086.500, 1949 1087.042 C 1911.243 1090.580, 1853.304 1101.506, 1811.200 1113.028 C 1743.738 1131.489, 1676.082 1159.114, 1610.370 1195.029 C 1575.278 1214.208, 1515.708 1253.683, 1491 1274.131 C 1488.525 1276.179, 1479.300 1283.582, 1470.500 1290.582 C 1461.700 1297.581, 1451.309 1306.052, 1447.410 1309.404 C 1443.510 1312.757, 1437.210 1318.067, 1433.410 1321.203 C 1429.609 1324.340, 1410.250 1343.240, 1390.389 1363.203 C 1352.525 1401.263, 1348.868 1405.091, 1339.365 1416.610 C 1336.139 1420.520, 1330.350 1427.343, 1326.500 1431.771 C 1315.204 1444.763, 1294.812 1470.082, 1290.071 1477 C 1288.752 1478.925, 1285.581 1482.975, 1283.024 1486 C 1280.467 1489.025, 1276.690 1493.975, 1274.631 1497 C 1272.572 1500.025, 1268.204 1506.325, 1264.926 1511 C 1249.464 1533.049, 1219.299 1579.188, 1211.934 1592.053 C 1195.179 1621.323, 1191.593 1631.136, 1193.894 1641.417 C 1196.249 1651.941, 1205.286 1661.191, 1218 1666.089 C 1227.846 1669.882, 1242.518 1667.357, 1249.882 1660.602 C 1253.498 1657.284, 1261.172 1645.911, 1267.494 1634.500 C 1278.678 1614.313, 1300.647 1579.299, 1307.858 1570.169 C 1309.452 1568.151, 1313.760 1562.034, 1317.431 1556.576 C 1321.101 1551.118, 1325.785 1544.593, 1327.838 1542.076 C 1329.891 1539.559, 1332.729 1535.692, 1334.145 1533.483 C 1339.068 1525.803, 1349.032 1512.973, 1365 1493.751 C 1369.125 1488.785, 1374.237 1482.423, 1376.361 1479.611 C 1378.484 1476.800, 1382.364 1472.250, 1384.983 1469.500 C 1387.602 1466.750, 1393.458 1460.225, 1397.996 1455 C 1421.342 1428.122, 1466.985 1383.842, 1495.585 1360.326 C 1499.482 1357.122, 1507.807 1350.199, 1514.085 1344.941 C 1541.335 1322.123, 1594.241 1285.688, 1625 1268.557 C 1666.257 1245.580, 1711.471 1224.116, 1751.500 1208.505 C 1773.965 1199.744, 1811.143 1188.135, 1838 1181.495 C 1916.350 1162.122, 1980.533 1153.607, 2048.500 1153.568 C 2141.069 1153.516, 2235.090 1169.572, 2325.581 1200.887 C 2355.767 1211.332, 2368.395 1215.964, 2380.500 1221.029 C 2386 1223.331, 2394.325 1226.776, 2399 1228.685 C 2410.227 1233.269, 2455.359 1255.589, 2475.500 1266.517 C 2532.475 1297.430, 2606.044 1348.027, 2645.560 1383.475 C 2651.094 1388.439, 2659.748 1396.045, 2664.793 1400.378 C 2677.637 1411.409, 2725.493 1460.102, 2737.506 1474.363 C 2768.917 1511.651, 2776.617 1521.373, 2790.675 1541.500 C 2795.669 1548.650, 2801.914 1558.100, 2804.553 1562.500 C 2813.160 1576.854, 2823.534 1589.024, 2831.830 1594.500 C 2843.829 1602.420, 2864.516 1601.088, 2874.108 1591.779 C 2880.147 1585.919, 2881.374 1582.185, 2881.431 1569.500 C 2881.487 1556.922, 2879.231 1548.477, 2873.606 1540.209 C 2861.373 1522.226, 2847.084 1501.640, 2843.615 1497 C 2808.948 1450.625, 2766.270 1402.265, 2731.844 1370.347 C 2684.858 1326.783, 2674.661 1318.198, 2629.500 1284.189 C 2613.665 1272.264, 2605.018 1266.104, 2574.713 1245.160 C 2563.120 1237.148, 2538.761 1222.049, 2526 1214.965 C 2522.425 1212.980, 2513.650 1208.061, 2506.500 1204.033 C 2422.051 1156.455, 2324.129 1120.353, 2226 1100.617 C 2195.530 1094.489, 2187.106 1093.112, 2161.500 1090.075 C 2096.740 1082.394, 2057.310 1080.695, 1999.500 1083.097 M 2562.873 1399.986 C 2559.569 1400.411, 2553.787 1402.386, 2548.873 1404.769 C 2541.978 1408.110, 2538.853 1410.484, 2531.171 1418.213 C 2521.901 1427.539, 2509.076 1444.685, 2502.263 1456.861 C 2492.222 1474.805, 2477.323 1510.951, 2467.171 1542 C 2463.326 1553.758, 2453.025 1595.847, 2449.548 1614 C 2448.127 1621.425, 2446.488 1629.750, 2445.907 1632.500 C 2445.325 1635.250, 2444.251 1641.775, 2443.519 1647 C 2442.787 1652.225, 2441.489 1660.775, 2440.636 1666 C 2437.664 1684.198, 2435.865 1703.049, 2435.039 1724.660 C 2434.093 1749.421, 2434.512 1748.325, 2424.803 1751.432 C 2404.460 1757.941, 2378.565 1775.370, 2356.423 1797.454 C 2337.158 1816.670, 2323.020 1836.853, 2309.458 1864.500 C 2299.969 1883.845, 2292.865 1903.259, 2289.151 1920 C 2284.137 1942.600, 2283.604 1947.118, 2283.556 1967.500 C 2283.507 1987.771, 2283.500 1987.703, 2288.904 2018 C 2292.066 2035.725, 2293.486 2040.712, 2299.186 2054.097 C 2303.047 2063.163, 2306.312 2067.198, 2323.954 2084.702 C 2333.115 2093.792, 2353.473 2100.658, 2367.844 2099.506 C 2392.216 2097.551, 2415.931 2086.756, 2439.896 2066.707 C 2445.178 2062.288, 2452.329 2056.047, 2455.787 2052.836 C 2459.244 2049.626, 2462.555 2047, 2463.144 2047 C 2463.732 2047, 2468.246 2051.261, 2473.175 2056.468 C 2487.720 2071.838, 2499.231 2078.467, 2517.500 2081.996 C 2530.332 2084.475, 2537.960 2084.181, 2556 2080.513 C 2580.432 2075.545, 2601.584 2065.440, 2636.371 2042.114 C 2640.150 2039.580, 2646.735 2034.468, 2651.006 2030.754 C 2655.276 2027.039, 2659.413 2024, 2660.198 2024 C 2660.983 2024, 2662.948 2025.396, 2664.563 2027.102 C 2671.376 2034.297, 2687.554 2044.292, 2699.288 2048.554 C 2718.376 2055.489, 2722.288 2056.230, 2742.500 2056.746 C 2760.909 2057.215, 2761.656 2057.157, 2766.514 2054.865 C 2771.977 2052.288, 2772.454 2050.924, 2769.979 2044.949 C 2768.948 2042.460, 2768.937 2041.657, 2769.924 2041.047 C 2770.834 2040.485, 2770.675 2040.089, 2769.334 2039.572 C 2767.651 2038.924, 2767.637 2038.788, 2769.171 2037.927 C 2770.628 2037.109, 2770.672 2036.638, 2769.519 2034.245 C 2768.066 2031.229, 2768.595 2025, 2770.305 2025 C 2770.897 2025, 2770.509 2024.334, 2769.441 2023.519 C 2767.876 2022.325, 2767.763 2021.865, 2768.857 2021.144 C 2769.819 2020.510, 2769.887 2020.048, 2769.090 2019.556 C 2768.473 2019.174, 2768.218 2018.457, 2768.523 2017.962 C 2768.829 2017.467, 2769.255 2015.586, 2769.469 2013.781 C 2770.343 2006.409, 2770.840 2004.708, 2772.949 2001.855 C 2774.469 1999.799, 2775.257 1997.099, 2775.480 1993.185 C 2775.658 1990.058, 2776.312 1986.196, 2776.933 1984.601 C 2778.419 1980.790, 2778.017 1974, 2776.304 1974 C 2775.587 1974, 2775 1973.366, 2775 1972.591 C 2775 1971.382, 2774.253 1971.386, 2769.750 1972.620 C 2762.334 1974.652, 2744.322 1974.413, 2735.500 1972.165 C 2729.710 1970.690, 2728.444 1969.999, 2728.178 1968.170 C 2727.928 1966.456, 2728.632 1965.634, 2731.303 1964.518 C 2736.752 1962.241, 2781 1920.060, 2781 1917.142 C 2781 1916.514, 2781.675 1916, 2782.500 1916 C 2783.325 1916, 2784 1915.654, 2784 1915.230 C 2784 1914.433, 2790.356 1907.002, 2797.750 1899.153 C 2800.088 1896.672, 2802 1894.048, 2802 1893.321 C 2802 1892.594, 2802.450 1892, 2803 1892 C 2803.550 1892, 2804 1891.335, 2804 1890.523 C 2804 1889.711, 2805.107 1888.320, 2806.461 1887.434 C 2807.815 1886.547, 2809.178 1885.015, 2809.491 1884.029 C 2809.803 1883.044, 2810.938 1881.172, 2812.011 1879.869 C 2814.945 1876.308, 2815.339 1875.732, 2817.413 1871.970 C 2818.466 1870.062, 2820.543 1866.925, 2822.030 1865 C 2824.494 1861.811, 2830.389 1850.440, 2829.923 1849.778 C 2829.815 1849.625, 2831.138 1847.274, 2832.863 1844.554 C 2834.589 1841.834, 2836 1839.248, 2836 1838.807 C 2836 1838.366, 2837.386 1834.967, 2839.080 1831.253 C 2845.679 1816.788, 2849.349 1805.157, 2853.200 1786.500 C 2856.425 1770.878, 2856.437 1745.246, 2853.225 1733.388 C 2846.674 1709.201, 2835.578 1693.244, 2819.468 1684.843 C 2809.149 1679.462, 2804.031 1678.659, 2783.883 1679.260 C 2767.866 1679.738, 2765.775 1680.022, 2757.271 1682.868 C 2726.424 1693.192, 2701.758 1713.240, 2673.149 1751.241 C 2652.907 1778.128, 2638.166 1809.219, 2630.592 1841 C 2623.707 1869.885, 2623.499 1871.833, 2623.516 1907 C 2623.530 1934.702, 2623.788 1940.435, 2625.266 1945.831 C 2628.492 1957.609, 2628.347 1958.007, 2616.849 1968.886 C 2606.821 1978.374, 2605.246 1979.677, 2591.500 1989.849 C 2584.185 1995.263, 2565.927 2004.770, 2557.715 2007.443 C 2552.108 2009.267, 2543.691 2009.454, 2537.487 2007.892 C 2531.431 2006.368, 2524.152 1999.200, 2520.157 1990.829 C 2514.230 1978.410, 2509.428 1949.705, 2511.879 1941.349 C 2512.388 1939.616, 2515.548 1934.089, 2518.902 1929.067 C 2522.256 1924.044, 2525 1919.681, 2525 1919.372 C 2525 1919.062, 2525.841 1917.614, 2526.869 1916.154 C 2531.304 1909.856, 2540.090 1893.570, 2544.772 1882.968 C 2547.557 1876.661, 2553.286 1864.075, 2557.503 1855 C 2568.378 1831.597, 2567.781 1832.985, 2578.790 1805.500 C 2602.646 1745.940, 2618.944 1682.113, 2628.074 1612.500 C 2629.156 1604.250, 2630.561 1593.675, 2631.197 1589 C 2631.922 1583.671, 2632.367 1563.899, 2632.389 1536 C 2632.429 1486.899, 2632.301 1485.463, 2625.452 1458.154 C 2618.655 1431.053, 2605.790 1412.005, 2588.294 1403.136 C 2584.726 1401.327, 2572.754 1398.789, 2569.500 1399.151 C 2568.950 1399.212, 2565.968 1399.588, 2562.873 1399.986 M 2560.175 1498.250 C 2547.606 1518.795, 2526.341 1594.551, 2516.499 1653.845 C 2508.950 1699.325, 2501.770 1755.635, 2500.478 1779.500 C 2500.151 1785.550, 2499.194 1796.272, 2498.352 1803.327 C 2497.510 1810.382, 2497.055 1816.388, 2497.341 1816.674 C 2498.777 1818.111, 2505.092 1800.712, 2521.356 1750.500 C 2528.217 1729.319, 2538.292 1691.029, 2544.381 1663 C 2552.001 1627.920, 2558.050 1584.217, 2560.438 1547 C 2562.197 1519.574, 2563.226 1495, 2562.615 1495 C 2562.366 1495, 2561.268 1496.463, 2560.175 1498.250 M 1539 1684.550 C 1527.805 1688.058, 1518.601 1699.334, 1514.914 1714.054 C 1512.925 1721.993, 1512.806 1724.873, 1512.924 1762 C 1513.032 1796.277, 1510.742 1876.960, 1509.607 1878.843 C 1509.389 1879.204, 1508.677 1886.250, 1508.025 1894.500 C 1507.373 1902.750, 1506.227 1913.325, 1505.480 1918 C 1504.732 1922.675, 1503.849 1929.650, 1503.517 1933.500 C 1502.470 1945.670, 1494.592 1993.713, 1490.466 2013.093 C 1476.184 2080.183, 1455.832 2146.383, 1437.461 2185.500 C 1431.908 2197.325, 1417.529 2223.599, 1411.192 2233.500 C 1403.119 2246.114, 1402.192 2247.467, 1399.538 2250.500 C 1398.094 2252.150, 1394.345 2256.457, 1391.206 2260.072 C 1383.832 2268.565, 1378.770 2272.629, 1369.809 2277.250 C 1363.725 2280.387, 1361.533 2281, 1356.394 2281 C 1344.909 2281, 1339.956 2278.070, 1331.037 2266 C 1322.100 2253.905, 1316.751 2241.230, 1309.090 2214 C 1297.930 2174.333, 1293.267 2122.298, 1294.394 2050 C 1295.547 1976.084, 1298.461 1942.732, 1309.512 1877 C 1311.688 1864.058, 1315 1836.128, 1315 1830.722 C 1315 1823.821, 1312.226 1811.370, 1309.504 1806.059 C 1300.237 1787.972, 1271.778 1780.144, 1254.688 1790.983 C 1244.343 1797.544, 1234.007 1816.032, 1219.459 1854 C 1214.718 1866.375, 1209.361 1880.325, 1207.555 1885 C 1198.047 1909.617, 1179.887 1971.115, 1167.986 2019 C 1165.731 2028.075, 1162.158 2042.025, 1160.047 2050 C 1157.936 2057.975, 1154.100 2073.275, 1151.522 2084 C 1138.653 2137.535, 1123.877 2187.290, 1110.985 2220.500 C 1100.886 2246.515, 1097.493 2253.797, 1088.199 2269.393 C 1078.715 2285.309, 1069.479 2295.605, 1060.792 2299.946 C 1055.355 2302.663, 1053.701 2303, 1045.800 2303 C 1035.251 2303, 1031.267 2301.368, 1024.301 2294.193 C 1015.546 2285.176, 1010.570 2275.608, 1005.183 2257.428 C 996.630 2228.566, 993.374 2205.142, 991.821 2161.298 C 990.043 2111.119, 992.289 2066.138, 998.951 2018.500 C 1000.105 2010.250, 1001.241 2002.825, 1001.475 2002 C 1001.709 2001.175, 1002.855 1993.975, 1004.021 1986 C 1006.786 1967.097, 1012.675 1937.745, 1020.072 1906 C 1034.914 1842.298, 1036.090 1836.493, 1036.738 1823.729 C 1037.725 1804.300, 1033.016 1794.484, 1019.808 1788.437 C 1014.769 1786.130, 1011.749 1785.474, 1004.792 1785.177 C 996.681 1784.830, 995.602 1785.027, 989.039 1788.051 C 978.852 1792.747, 974.175 1798.211, 966.552 1814.320 C 953.191 1842.556, 935.947 1904.739, 927.542 1955 C 926.760 1959.675, 924.790 1971.375, 923.164 1981 C 921.539 1990.625, 919.908 2001.425, 919.541 2005 C 919.173 2008.575, 918.239 2016.450, 917.464 2022.500 C 916.690 2028.550, 915.587 2039.653, 915.013 2047.174 C 914.440 2054.695, 913.557 2064.145, 913.052 2068.174 C 911.423 2081.185, 910.771 2126.631, 911.886 2149.500 C 915.211 2217.695, 926.237 2270.405, 944.937 2307.503 C 955.412 2328.284, 960.598 2335.690, 974.134 2349.203 C 985.373 2360.423, 986.364 2361.152, 998.178 2366.874 C 1012.987 2374.046, 1019.850 2375.870, 1035 2376.660 C 1063.357 2378.138, 1087.285 2371.065, 1106.731 2355.455 C 1120.482 2344.416, 1141.061 2320.356, 1151.358 2303.279 C 1172.001 2269.045, 1198.969 2188.668, 1216.994 2107.656 C 1219.667 2095.643, 1222.041 2085.625, 1222.271 2085.396 C 1222.500 2085.166, 1222.964 2098.371, 1223.302 2114.739 C 1223.938 2145.560, 1224.853 2155.645, 1230.037 2189 C 1236.618 2231.338, 1242.895 2252.448, 1257.544 2281.500 C 1266.787 2299.832, 1272.106 2307.210, 1286.446 2321.591 C 1304.281 2339.476, 1315.341 2345.826, 1333.500 2348.607 C 1354.696 2351.854, 1373.780 2349.320, 1394.368 2340.527 C 1402.773 2336.937, 1420.631 2325.303, 1427.379 2319.023 C 1457.502 2290.984, 1476.036 2264.891, 1499.845 2217 C 1511.967 2192.617, 1514.645 2186.292, 1527.366 2152 C 1539.496 2119.298, 1553.554 2071.371, 1560.510 2039 C 1571.187 1989.317, 1581.070 1924.656, 1584.048 1885 C 1584.606 1877.575, 1585.492 1868.350, 1586.018 1864.500 C 1589.273 1840.680, 1589.743 1730.765, 1586.650 1716.933 C 1584.922 1709.207, 1581.423 1701.584, 1577.097 1696.123 C 1568.830 1685.684, 1551.844 1680.524, 1539 1684.550 M 2770.516 1759.507 C 2756.729 1765.174, 2742.066 1778.425, 2730.432 1795.729 C 2723.849 1805.521, 2711.284 1830.394, 2706.808 1842.494 C 2701.378 1857.176, 2695.213 1887.671, 2695.031 1900.750 C 2694.998 1903.137, 2697.438 1903.889, 2698.275 1901.750 C 2698.544 1901.063, 2703.429 1895.062, 2709.132 1888.415 C 2738.414 1854.284, 2757.020 1827.087, 2769.598 1800.027 C 2775.649 1787.009, 2783 1764.799, 2783 1759.535 C 2783 1757.337, 2782.568 1757.003, 2779.750 1757.024 C 2777.963 1757.037, 2773.807 1758.154, 2770.516 1759.507 M 2422.241 1833.651 C 2416.074 1837.835, 2402.143 1852.334, 2394.041 1863 C 2386.737 1872.615, 2382.652 1879.738, 2376.261 1894 C 2361.238 1927.526, 2356.509 1947.850, 2356.598 1978.500 C 2356.643 1994.222, 2356.851 1996.117, 2359.356 2003.717 C 2361.755 2010.991, 2367.164 2020.054, 2370.407 2022.235 C 2373.035 2024.001, 2383.777 2022.988, 2389.565 2020.429 C 2402.305 2014.795, 2419.685 1999.799, 2431.081 1984.609 C 2433.511 1981.369, 2436.355 1977.615, 2437.401 1976.267 C 2439.227 1973.911, 2439.237 1973.519, 2437.660 1966.158 C 2434.755 1952.604, 2432.200 1936.712, 2431.607 1928.500 C 2431.289 1924.100, 2430.299 1911.725, 2429.408 1901 C 2427.798 1881.644, 2427.883 1839.380, 2429.544 1832.750 C 2430.483 1829.005, 2428.778 1829.215, 2422.241 1833.651 M 1148.275 2388.654 C 1141.881 2390.918, 1134.585 2398.067, 1130.781 2405.794 C 1127.849 2411.749, 1127.501 2413.364, 1127.506 2420.979 C 1127.512 2430.767, 1129.148 2436.782, 1137.708 2458.500 C 1149.252 2487.789, 1162.541 2516.502, 1174.895 2538.849 C 1177.525 2543.607, 1181.573 2550.993, 1183.891 2555.261 C 1202.316 2589.202, 1216.733 2611.486, 1247.124 2653 C 1296.854 2720.929, 1350.413 2777.518, 1419.381 2835 C 1457.376 2866.667, 1491.612 2890.792, 1548.687 2926.116 C 1576.733 2943.474, 1641.094 2976.416, 1676 2991.278 C 1740.146 3018.590, 1803.841 3037.774, 1872.712 3050.523 C 1929.509 3061.037, 1970.360 3064.892, 2031.500 3065.509 C 2061.749 3065.814, 2069.816 3065.584, 2082 3064.068 C 2095.717 3062.361, 2101.464 3061.512, 2106.834 3060.402 C 2108.293 3060.101, 2108.927 3060.310, 2108.525 3060.960 C 2108.171 3061.532, 2108.359 3062, 2108.941 3062 C 2109.523 3062, 2110 3061.550, 2110 3061 C 2110 3060.450, 2110.477 3060, 2111.059 3060 C 2111.641 3060, 2111.840 3060.450, 2111.500 3061 C 2111.160 3061.550, 2111.310 3062, 2111.834 3062 C 2112.358 3062, 2113.023 3061.383, 2113.312 3060.628 C 2113.681 3059.669, 2116.043 3059.189, 2121.169 3059.034 C 2125.201 3058.911, 2129.038 3058.778, 2129.694 3058.739 C 2130.351 3058.699, 2130.801 3058.190, 2130.694 3057.607 C 2130.588 3057.024, 2131.625 3056.392, 2133 3056.203 C 2134.375 3056.014, 2135.950 3055.288, 2136.500 3054.591 C 2137.050 3053.895, 2138.175 3053.062, 2139 3052.741 C 2140.013 3052.347, 2139.769 3052.132, 2138.250 3052.079 C 2136.913 3052.032, 2136 3051.368, 2136 3050.441 C 2136 3049.584, 2136.445 3049.157, 2136.989 3049.493 C 2137.551 3049.841, 2137.726 3049.449, 2137.394 3048.584 C 2137.073 3047.747, 2136.515 3047.102, 2136.155 3047.150 C 2133.919 3047.446, 2132.856 3046.818, 2133.362 3045.500 C 2133.678 3044.675, 2133.501 3044, 2132.969 3044 C 2132.436 3044, 2132 3044.525, 2132 3045.167 C 2132 3045.808, 2131.711 3046.044, 2131.357 3045.691 C 2131.004 3045.337, 2131.284 3044.362, 2131.980 3043.524 C 2133.024 3042.266, 2132.964 3042, 2131.634 3042 C 2129.941 3042, 2126.812 3039.771, 2124.107 3036.638 C 2123.223 3035.615, 2122.032 3034.265, 2121.460 3033.638 C 2120.888 3033.012, 2120.438 3030.181, 2120.460 3027.346 C 2120.482 3024.511, 2120.153 3022.406, 2119.729 3022.668 C 2119.304 3022.930, 2119.060 3021.793, 2119.186 3020.141 C 2119.312 3018.490, 2119.772 3017.359, 2120.207 3017.628 C 2120.643 3017.898, 2121.056 3017.641, 2121.125 3017.059 C 2121.194 3016.477, 2121.334 3015.438, 2121.436 3014.750 C 2121.539 3014.063, 2121.236 3012.978, 2120.763 3012.339 C 2120.249 3011.645, 2120.387 3010.879, 2121.106 3010.435 C 2121.919 3009.932, 2122.047 3010.115, 2121.500 3011 C 2120.965 3011.866, 2121.082 3012.068, 2121.845 3011.595 C 2122.480 3011.203, 2123 3010.009, 2123 3008.941 C 2123 3007.667, 2123.687 3007, 2125 3007 C 2126.145 3007, 2127 3006.333, 2127 3005.441 C 2127 3004.584, 2127.450 3004.160, 2128 3004.500 C 2128.550 3004.840, 2129 3004.641, 2129 3004.059 C 2129 3003.477, 2129.597 3003, 2130.326 3003 C 2131.055 3003, 2132.708 3001.875, 2134 3000.500 C 2135.909 2998.467, 2136.041 2998, 2134.706 2998 C 2133.722 2998, 2133.275 2997.448, 2133.591 2996.623 C 2133.929 2995.743, 2133.161 2995.006, 2131.459 2994.579 C 2129.996 2994.212, 2127.491 2992.945, 2125.893 2991.763 C 2123.480 2989.979, 2122.775 2989.842, 2121.743 2990.954 C 2120.737 2992.039, 2120.803 2992.189, 2122.091 2991.740 C 2122.966 2991.435, 2124.316 2991.591, 2125.091 2992.088 C 2125.957 2992.642, 2121.106 2992.896, 2112.500 2992.745 C 2104.800 2992.610, 2088.393 2993.131, 2076.040 2993.902 C 2049.804 2995.540, 2024.010 2995.027, 1982.500 2992.043 C 1917.178 2987.347, 1880.800 2981.051, 1814 2962.882 C 1732.138 2940.616, 1644.332 2900.565, 1561.500 2847.711 C 1528.157 2826.435, 1480.225 2790.736, 1452.541 2766.560 C 1449.219 2763.658, 1441.550 2757.072, 1435.500 2751.923 C 1422.381 2740.759, 1368.796 2687.232, 1352.725 2669.238 C 1346.468 2662.232, 1335.560 2649.300, 1328.486 2640.500 C 1321.412 2631.700, 1310.397 2618.200, 1304.007 2610.500 C 1265.965 2564.659, 1220.358 2484.847, 1199.907 2428.323 C 1190.514 2402.360, 1185.501 2394.936, 1173.640 2389.413 C 1169.504 2387.487, 1166.937 2387.033, 1160.500 2387.089 C 1156.100 2387.127, 1150.599 2387.831, 1148.275 2388.654" stroke="none" fill="#f35ffb" fill-rule="evenodd"/><path d="M 1947.143 964.005 C 1937.597 964.452, 1928.372 965.074, 1926.643 965.387 C 1924.914 965.700, 1918.325 966.422, 1912 966.991 C 1867.459 971.001, 1801.943 983.116, 1759.500 995.192 C 1741.720 1000.250, 1699.587 1013.768, 1682 1020.055 C 1663.316 1026.735, 1628.672 1040.931, 1612.447 1048.555 C 1607.468 1050.894, 1600.493 1054.017, 1596.947 1055.494 C 1589.138 1058.747, 1550.266 1078.675, 1533 1088.279 C 1489.077 1112.708, 1436.035 1148.999, 1384.500 1189.883 C 1346.646 1219.913, 1327.183 1237.557, 1284.089 1280.912 C 1256.392 1308.776, 1247.741 1317.986, 1237.003 1331.035 C 1234.530 1334.041, 1229.759 1339.425, 1226.400 1343 C 1223.042 1346.575, 1217.027 1353.550, 1213.034 1358.500 C 1209.041 1363.450, 1204.114 1369.300, 1202.086 1371.500 C 1200.058 1373.700, 1195.995 1378.650, 1193.058 1382.500 C 1190.120 1386.350, 1186.691 1390.625, 1185.438 1392 C 1184.184 1393.375, 1180.760 1397.749, 1177.829 1401.721 C 1174.898 1405.692, 1169.123 1413.342, 1164.995 1418.721 C 1160.867 1424.099, 1156.187 1430.525, 1154.594 1433 C 1153.002 1435.475, 1150.079 1439.525, 1148.099 1442 C 1142.666 1448.792, 1134.922 1460.186, 1115.814 1489.500 C 1099.546 1514.458, 1067.998 1569.915, 1054.377 1597.500 C 1041.779 1623.013, 1040.029 1631.939, 1045.417 1643.210 C 1051.445 1655.822, 1072.662 1663.421, 1084.591 1657.241 C 1093.887 1652.425, 1097.119 1647.635, 1113.425 1614.500 C 1128.379 1584.114, 1142.805 1558.824, 1166.473 1521.500 C 1182.156 1496.767, 1206.073 1462.043, 1215.623 1450.139 C 1218.305 1446.795, 1223.200 1440.418, 1226.500 1435.967 C 1235.054 1424.428, 1239.456 1418.881, 1262.582 1390.500 C 1292.796 1353.420, 1375.057 1272.639, 1412 1243.770 C 1416.675 1240.117, 1425.966 1232.712, 1432.646 1227.314 C 1458.115 1206.735, 1507.008 1173.432, 1542 1152.829 C 1579.278 1130.881, 1632.813 1104.499, 1669.500 1089.999 C 1717.282 1071.112, 1768.145 1054.754, 1801.500 1047.546 C 1805.350 1046.714, 1814.386 1044.716, 1821.580 1043.105 C 1833.371 1040.467, 1847.202 1037.827, 1872 1033.482 C 1912.385 1026.406, 1939.592 1024.502, 2013 1023.614 C 2041.426 1023.270, 2043.264 1022.837, 2050.513 1014.774 C 2060.941 1003.176, 2060.053 986.253, 2048.406 974.606 C 2044.146 970.346, 2039.863 967.965, 2032 965.487 C 2027.373 964.029, 2021.581 963.709, 1995.500 963.473 C 1978.450 963.319, 1956.689 963.558, 1947.143 964.005 M 3075.871 1650.951 C 3068.803 1652.247, 3063.128 1655.165, 3056.138 1661.099 C 3044.549 1670.937, 3034.661 1686.137, 3022.700 1712.500 C 3019.706 1719.100, 3015.655 1727.900, 3013.698 1732.055 C 3011.741 1736.210, 3008.268 1744.310, 3005.981 1750.055 C 3003.694 1755.800, 3001.490 1760.950, 3001.083 1761.500 C 3000.676 1762.050, 2998.221 1768.350, 2995.628 1775.500 C 2993.034 1782.650, 2990.088 1790.300, 2989.081 1792.500 C 2985.551 1800.216, 2981.875 1807.481, 2982.486 1805.533 C 2983.209 1803.229, 2985.975 1785.811, 2989.636 1760.500 C 2991.772 1745.727, 2992.262 1738.466, 2992.369 1720 C 2992.493 1698.679, 2992.373 1697.111, 2990.067 1690.071 C 2985.785 1676.995, 2977.392 1671.755, 2960.572 1671.653 C 2953.983 1671.613, 2951.616 1672.046, 2947.690 1674.009 C 2940.645 1677.532, 2936.119 1682.460, 2932.262 1690.809 C 2928.780 1698.346, 2928.798 1698.245, 2925.978 1725.500 C 2925.466 1730.450, 2924.800 1741.025, 2924.498 1749 C 2923.296 1780.678, 2920.627 1796.465, 2912.749 1818.500 C 2896.358 1864.342, 2878.600 1894.048, 2850.080 1923.338 C 2830.004 1943.955, 2810.037 1957.622, 2784.612 1968.148 C 2780.824 1969.717, 2777.112 1971, 2776.362 1971 C 2775.613 1971, 2775 1971.675, 2775 1972.500 C 2775 1973.325, 2775.587 1974, 2776.304 1974 C 2778.017 1974, 2778.419 1980.790, 2776.933 1984.601 C 2776.312 1986.196, 2775.658 1990.058, 2775.480 1993.185 C 2775.257 1997.099, 2774.469 1999.799, 2772.949 2001.855 C 2770.840 2004.708, 2770.343 2006.409, 2769.469 2013.781 C 2769.255 2015.586, 2768.829 2017.467, 2768.523 2017.962 C 2768.218 2018.457, 2768.473 2019.174, 2769.090 2019.556 C 2769.887 2020.048, 2769.819 2020.510, 2768.857 2021.144 C 2767.763 2021.865, 2767.876 2022.325, 2769.441 2023.519 C 2770.509 2024.334, 2770.897 2025, 2770.305 2025 C 2768.595 2025, 2768.066 2031.229, 2769.519 2034.245 C 2770.672 2036.638, 2770.628 2037.109, 2769.171 2037.927 C 2767.637 2038.788, 2767.651 2038.924, 2769.334 2039.572 C 2770.675 2040.089, 2770.834 2040.485, 2769.924 2041.047 C 2768.937 2041.657, 2768.948 2042.460, 2769.979 2044.949 C 2772.265 2050.467, 2771.869 2052.333, 2768.014 2054.216 L 2764.500 2055.932 2768.500 2055.959 C 2773.197 2055.991, 2785.395 2053.178, 2799.307 2048.856 C 2814.972 2043.989, 2840.226 2030.762, 2855.500 2019.424 C 2876.161 2004.088, 2905.388 1973.220, 2909.373 1962.528 C 2910.779 1958.755, 2911.969 1963.149, 2911.985 1972.174 C 2911.993 1976.944, 2912.440 1983.019, 2912.979 1985.674 C 2913.517 1988.328, 2914.650 1993.875, 2915.496 1998 C 2918.707 2013.662, 2925.525 2023.017, 2937.921 2028.773 C 2945.070 2032.092, 2945.694 2032.204, 2954.921 2031.803 C 2961.354 2031.524, 2965.562 2030.826, 2967.734 2029.676 C 2972.462 2027.175, 2977.651 2021.623, 2980.481 2016.038 C 2983.071 2010.926, 2986.446 1996.777, 2987.526 1986.500 C 2990.252 1960.567, 2996.500 1933.835, 3010.549 1888 C 3017.468 1865.424, 3031.433 1824.163, 3039.485 1802.500 C 3042.961 1793.150, 3046.705 1782.800, 3047.806 1779.500 C 3050.335 1771.915, 3054.025 1763.691, 3054.628 1764.295 C 3054.882 1764.549, 3055.210 1777.523, 3055.357 1793.128 C 3055.640 1823.063, 3056.910 1833.705, 3061.946 1848.343 C 3067.909 1865.674, 3080.005 1882.514, 3092.487 1890.863 C 3103.674 1898.345, 3111.544 1900.453, 3128 1900.372 C 3140.629 1900.311, 3142 1900.109, 3149.242 1897.244 C 3165.169 1890.943, 3172.372 1885.904, 3193.772 1866.088 C 3210.291 1850.793, 3222.320 1835.351, 3231.122 1818.139 C 3238.940 1802.851, 3240.699 1793.215, 3237.079 1785.500 C 3233.221 1777.277, 3227.996 1773.679, 3217.228 1771.832 C 3205.402 1769.804, 3196.383 1773.778, 3186.995 1785.154 C 3184.115 1788.644, 3180.107 1793.300, 3178.089 1795.500 C 3176.071 1797.700, 3171.652 1803.150, 3168.271 1807.611 C 3155.354 1824.650, 3135.384 1838.245, 3129.087 1834.286 C 3126.608 1832.728, 3124.225 1828.017, 3122.349 1820.968 C 3119.964 1812.008, 3119.951 1782.039, 3122.322 1760.500 C 3123.291 1751.700, 3124.739 1738.605, 3125.542 1731.401 C 3128.562 1704.272, 3126.705 1681.093, 3120.494 1668.397 C 3117.245 1661.758, 3110.473 1655.695, 3103.315 1653.017 C 3097.085 1650.686, 3083.074 1649.631, 3075.871 1650.951 M 2143.763 1808.465 C 2139.235 1810.187, 2132.364 1814.754, 2125.088 1820.877 C 2112.772 1831.241, 2092.260 1863.435, 2071.417 1905.110 C 2057.724 1932.490, 2047.295 1954.334, 2044.017 1962.500 C 2038.917 1975.204, 2030.921 1994.429, 2028.944 1998.739 C 2027.875 2001.071, 2027 2003.407, 2027 2003.930 C 2027 2004.454, 2026.592 2005.134, 2026.093 2005.442 C 2025.135 2006.035, 2025.813 2002.201, 2026.967 2000.500 C 2027.341 1999.950, 2027.738 1997.925, 2027.851 1996 C 2027.963 1994.075, 2030.945 1974.950, 2034.477 1953.500 C 2042.549 1904.467, 2042.831 1902.323, 2043.632 1883.727 C 2044.243 1869.572, 2044.124 1867.883, 2042.088 1861.766 C 2039.913 1855.230, 2035.634 1848.286, 2031.578 1844.710 C 2030.435 1843.703, 2027.073 1841.718, 2024.108 1840.301 C 2019.203 1837.956, 2017.957 1837.777, 2010.336 1838.314 C 1991.982 1839.610, 1980.728 1850.541, 1975.126 1872.518 C 1972.440 1883.058, 1968.112 1910.111, 1967.314 1921.360 L 1966.678 1930.323 1964.089 1927.264 C 1962.665 1925.582, 1959.045 1920.897, 1956.043 1916.853 C 1947.907 1905.888, 1934.481 1892.973, 1927.996 1889.871 C 1917.733 1884.963, 1901.503 1883.605, 1886.905 1886.435 C 1875.926 1888.563, 1865.902 1892.888, 1855.146 1900.138 C 1851.730 1902.440, 1850.491 1902.823, 1849.396 1901.914 C 1848.628 1901.277, 1848 1900.210, 1848 1899.544 C 1848 1898.878, 1844.593 1894.665, 1840.428 1890.182 C 1827.256 1876.003, 1809.311 1865.876, 1791.228 1862.417 C 1781.865 1860.625, 1774.015 1860.633, 1761.996 1862.445 C 1736.451 1866.295, 1715.665 1877.155, 1695.984 1896.933 C 1685.040 1907.930, 1672.417 1923.634, 1665.152 1935.289 C 1647.779 1963.158, 1635.229 2001.642, 1630.839 2040.500 C 1629.215 2054.876, 1629.216 2088.574, 1630.840 2102.500 C 1637.003 2155.345, 1664.365 2200.135, 1699.500 2214.892 C 1713.017 2220.569, 1734.436 2223.273, 1748.010 2221.016 C 1764.061 2218.347, 1784.788 2209.643, 1800.474 2198.984 C 1808.188 2193.743, 1824.828 2177.646, 1831.470 2169 C 1848.058 2147.409, 1862.015 2116.757, 1869.037 2086.500 C 1875.342 2059.332, 1875.471 2058.014, 1875.486 2020.500 C 1875.499 1988.541, 1875.301 1984.346, 1873.214 1972.214 C 1871.956 1964.906, 1871.173 1958.529, 1871.474 1958.041 C 1871.775 1957.554, 1874.984 1956.170, 1878.604 1954.965 C 1884.066 1953.148, 1886.830 1952.845, 1894.843 1953.185 C 1903.147 1953.538, 1905.060 1953.960, 1908.500 1956.196 C 1921.103 1964.389, 1932.835 1982.585, 1948.350 2018 C 1953.466 2029.679, 1953.766 2030.796, 1952.915 2035 C 1951.694 2041.030, 1951.779 2103.871, 1953.029 2119.814 C 1954.412 2137.445, 1954.824 2140.209, 1957.676 2150.978 C 1962.401 2168.813, 1966.838 2175.666, 1977.278 2181.244 C 1980.927 2183.194, 1982.993 2183.499, 1992.500 2183.495 C 2002.443 2183.491, 2004.076 2183.222, 2009.500 2180.693 C 2023.299 2174.259, 2027.124 2166.891, 2034.520 2132.500 C 2037.940 2116.594, 2041.625 2104.820, 2050.081 2082.785 C 2056.319 2066.528, 2059.224 2059.278, 2066.028 2043 C 2072.271 2028.060, 2082.033 2005.913, 2086.744 1996 C 2089.749 1989.675, 2093.334 1982.025, 2094.710 1979 C 2103.221 1960.286, 2110.508 1945.394, 2114.818 1937.909 C 2117.538 1933.184, 2120.086 1928.305, 2120.479 1927.065 C 2120.873 1925.826, 2122.991 1921.817, 2125.187 1918.156 C 2127.383 1914.495, 2128.877 1912.400, 2128.507 1913.500 C 2125.226 1923.246, 2120.172 1964.907, 2118.320 1997.469 C 2116.637 2027.046, 2117.055 2043.174, 2120.130 2067.380 C 2122.499 2086.029, 2128.813 2104.348, 2137.147 2116.751 C 2160.570 2151.608, 2197.292 2156.457, 2236.661 2129.891 C 2258.619 2115.074, 2280.951 2091.041, 2295.946 2066.090 L 2301 2057.680 2298.421 2052.090 C 2295.550 2045.866, 2293.774 2040.716, 2292.180 2034 C 2289.840 2024.135, 2288.958 2019.276, 2286.038 2000.160 C 2285.001 1993.372, 2283.972 1987.639, 2283.752 1987.418 C 2283.531 1987.198, 2280.010 1991.785, 2275.926 1997.612 C 2264.470 2013.955, 2239.774 2044.358, 2227.958 2056.664 C 2219.589 2065.379, 2207.299 2074.786, 2201.810 2076.677 C 2198.272 2077.897, 2197.465 2077.880, 2195.424 2076.542 C 2189.242 2072.492, 2186.554 2047.037, 2188.135 2007.500 C 2189.257 1979.410, 2191.039 1960.016, 2198.012 1900 C 2203.357 1853.992, 2202.678 1839.364, 2194.552 1825.498 C 2191.518 1820.321, 2183.561 1812.858, 2177.892 1809.872 C 2174.055 1807.851, 2171.856 1807.526, 2160.500 1807.301 C 2151.147 1807.116, 2146.451 1807.442, 2143.763 1808.465 M 1759.890 1930.470 C 1751.933 1933.398, 1741.250 1942.658, 1732.745 1954 C 1719.710 1971.380, 1706.641 2004.413, 1701.943 2031.849 C 1699.445 2046.442, 1699.166 2085.981, 1701.469 2099.119 C 1704.969 2119.085, 1711.034 2135.413, 1717.821 2143.144 C 1725.304 2151.666, 1736.921 2156.095, 1746.660 2154.139 C 1763.378 2150.782, 1775.073 2140.351, 1786.287 2118.795 C 1803.489 2085.727, 1812.617 2029.856, 1807.543 1988.692 C 1805.905 1975.399, 1800.749 1956.384, 1796.520 1948.040 C 1792.711 1940.523, 1784.735 1932.438, 1779.301 1930.587 C 1773.730 1928.689, 1764.874 1928.635, 1759.890 1930.470 M 2998.307 2093.077 C 2992.810 2095.798, 2986.394 2102.858, 2983.542 2109.322 C 2980.873 2115.373, 2980.327 2117.729, 2979.097 2128.500 C 2976.245 2153.465, 2969.476 2187.288, 2959.483 2226.500 C 2948.344 2270.209, 2938.663 2301.849, 2923.991 2342.500 C 2897.567 2415.710, 2851.988 2507.252, 2812.709 2566 C 2791.471 2597.766, 2756.612 2644.019, 2742.619 2659 C 2740.307 2661.475, 2735.781 2666.821, 2732.561 2670.880 C 2718.046 2689.179, 2663.079 2743.364, 2635.500 2766.561 C 2621.165 2778.619, 2585.735 2805.277, 2564.074 2820.303 C 2555.508 2826.245, 2546.700 2832.430, 2544.500 2834.048 C 2537.458 2839.226, 2502.014 2861.424, 2486 2870.685 C 2452.892 2889.833, 2433.713 2900.059, 2415.381 2908.338 C 2408.715 2911.348, 2400.840 2914.956, 2397.881 2916.357 C 2394.921 2917.757, 2387.550 2920.966, 2381.500 2923.488 C 2375.450 2926.010, 2369.150 2928.667, 2367.500 2929.392 C 2354.683 2935.024, 2347.983 2937.609, 2327.500 2944.825 C 2281.996 2960.856, 2259.666 2967.005, 2212.500 2976.490 C 2186.032 2981.813, 2150.116 2987.658, 2138 2988.614 C 2128.296 2989.381, 2124.061 2990.092, 2123.464 2991.058 C 2123.144 2991.576, 2122.432 2992, 2121.882 2992 C 2121.332 2992, 2121.092 2991.662, 2121.349 2991.250 C 2121.605 2990.838, 2118.819 2990.664, 2115.158 2990.865 C 2106.793 2991.323, 2109.638 2992.639, 2119.500 2992.874 C 2124.473 2992.992, 2126.066 2992.749, 2125 2992.035 C 2124.175 2991.483, 2124.007 2991.024, 2124.628 2991.015 C 2125.248 2991.007, 2126.291 2991.646, 2126.947 2992.436 C 2127.602 2993.225, 2129.489 2994.168, 2131.140 2994.531 C 2133.161 2994.975, 2133.965 2995.649, 2133.602 2996.595 C 2133.274 2997.450, 2133.706 2998, 2134.706 2998 C 2136.041 2998, 2135.909 2998.467, 2134 3000.500 C 2132.708 3001.875, 2131.055 3003, 2130.326 3003 C 2129.597 3003, 2129 3003.477, 2129 3004.059 C 2129 3004.641, 2128.550 3004.840, 2128 3004.500 C 2127.450 3004.160, 2127 3004.584, 2127 3005.441 C 2127 3006.333, 2126.145 3007, 2125 3007 C 2123.687 3007, 2123 3007.667, 2123 3008.941 C 2123 3010.009, 2122.480 3011.203, 2121.845 3011.595 C 2121.082 3012.068, 2120.965 3011.866, 2121.500 3011 C 2122.047 3010.115, 2121.919 3009.932, 2121.106 3010.435 C 2120.387 3010.879, 2120.249 3011.645, 2120.763 3012.339 C 2121.236 3012.978, 2121.539 3014.063, 2121.436 3014.750 C 2121.334 3015.438, 2121.194 3016.477, 2121.125 3017.059 C 2121.056 3017.641, 2120.643 3017.898, 2120.207 3017.628 C 2119.772 3017.359, 2119.312 3018.490, 2119.186 3020.141 C 2119.060 3021.793, 2119.304 3022.930, 2119.729 3022.668 C 2120.153 3022.406, 2120.489 3024.511, 2120.475 3027.346 C 2120.450 3032.459, 2121.372 3034.448, 2125.362 3037.893 C 2126.385 3038.777, 2127.816 3040.063, 2128.540 3040.750 C 2129.265 3041.438, 2130.619 3042, 2131.551 3042 C 2132.955 3042, 2133.029 3042.261, 2131.980 3043.524 C 2131.284 3044.362, 2131.004 3045.337, 2131.357 3045.691 C 2131.711 3046.044, 2132 3045.808, 2132 3045.167 C 2132 3044.525, 2132.436 3044, 2132.969 3044 C 2133.501 3044, 2133.678 3044.675, 2133.362 3045.500 C 2132.856 3046.818, 2133.919 3047.446, 2136.155 3047.150 C 2136.515 3047.102, 2137.073 3047.747, 2137.394 3048.584 C 2137.726 3049.449, 2137.551 3049.841, 2136.989 3049.493 C 2136.445 3049.157, 2136 3049.584, 2136 3050.441 C 2136 3051.368, 2136.913 3052.032, 2138.250 3052.079 C 2139.769 3052.132, 2140.013 3052.347, 2139 3052.741 C 2138.175 3053.062, 2137.050 3053.895, 2136.500 3054.591 C 2135.950 3055.288, 2134.375 3056.014, 2133 3056.203 C 2131.625 3056.392, 2130.587 3057.024, 2130.694 3057.607 C 2130.801 3058.190, 2130.351 3058.699, 2129.694 3058.739 C 2129.037 3058.778, 2125.201 3058.911, 2121.169 3059.034 C 2116.043 3059.189, 2113.681 3059.669, 2113.312 3060.628 C 2113.023 3061.383, 2112.358 3062, 2111.834 3062 C 2111.310 3062, 2111.160 3061.550, 2111.500 3061 C 2111.840 3060.450, 2111.641 3060, 2111.059 3060 C 2110.477 3060, 2110 3060.450, 2110 3061 C 2110 3061.550, 2109.523 3062, 2108.941 3062 C 2108.359 3062, 2108.190 3061.502, 2108.566 3060.893 C 2109.007 3060.180, 2108.583 3059.970, 2107.375 3060.305 C 2105.557 3060.807, 2095.809 3062.296, 2083.500 3063.950 L 2077.500 3064.756 2084 3064.874 C 2097.536 3065.119, 2140.380 3061.070, 2168 3056.935 C 2222.152 3048.827, 2281.910 3035.094, 2321.500 3021.658 C 2389.261 2998.662, 2413.061 2989.149, 2460.500 2966.101 C 2495.348 2949.170, 2552.068 2916.003, 2582.500 2894.762 C 2588.550 2890.539, 2595.670 2885.603, 2598.322 2883.792 C 2617.628 2870.611, 2653.688 2842.616, 2669.500 2828.532 C 2673.900 2824.614, 2683.335 2816.478, 2690.466 2810.454 C 2697.597 2804.429, 2716.384 2786.542, 2732.216 2770.705 C 2758.579 2744.331, 2766.962 2735.300, 2789.114 2709.402 C 2801.089 2695.402, 2827.525 2661.463, 2838.500 2645.999 C 2844 2638.249, 2850.852 2628.714, 2853.727 2624.809 C 2856.602 2620.905, 2860.851 2614.738, 2863.168 2611.105 C 2865.486 2607.472, 2869.705 2600.900, 2872.544 2596.500 C 2880.046 2584.873, 2891.866 2565.504, 2898.785 2553.500 C 2906.305 2540.454, 2921.112 2512.495, 2927.913 2498.500 C 2934.796 2484.336, 2944.435 2464.127, 2946.276 2460 C 2953.951 2442.793, 2961.164 2425.838, 2969.034 2406.500 C 2975.828 2389.806, 2989.269 2353.014, 2994.971 2335.500 C 3005.943 2301.801, 3005.961 2301.739, 3016.429 2263 C 3023.050 2238.496, 3032.733 2193.942, 3037.618 2165.500 C 3039.889 2152.279, 3040.378 2146.373, 3040.433 2131.500 C 3040.496 2114.582, 3040.360 2113.218, 3038.168 2108.810 C 3035.351 2103.143, 3027.516 2095.591, 3021.732 2092.965 C 3015.697 2090.225, 3003.955 2090.282, 2998.307 2093.077 M 3106.500 2204.925 C 3102.699 2205.863, 3097.420 2208.547, 3093.272 2211.652 C 3086.830 2216.474, 3084.121 2223.557, 3078.989 2249 C 3072.333 2282, 3057.942 2335.729, 3048.990 2361 C 3046.360 2368.425, 3043.881 2375.625, 3043.481 2377 C 3043.081 2378.375, 3037.218 2393.900, 3030.453 2411.500 C 3019.208 2440.753, 3014.047 2453.052, 2996.211 2493.111 C 2979.529 2530.577, 2947.138 2590.240, 2927.051 2620.500 C 2924.496 2624.350, 2919.078 2632.900, 2915.012 2639.500 C 2907.120 2652.312, 2879.702 2691.255, 2869.250 2704.500 C 2831.638 2752.160, 2814.593 2771.260, 2771.844 2813.647 C 2673.967 2910.699, 2545.433 2994.703, 2421.500 3042.618 C 2409.400 3047.296, 2397.925 3051.757, 2396 3052.531 C 2383.356 3057.614, 2339.528 3071.735, 2320.500 3076.858 C 2316.100 3078.042, 2306.650 3080.597, 2299.500 3082.535 C 2277.933 3088.380, 2231.392 3097.686, 2207.500 3100.930 C 2167.747 3106.327, 2167.589 3106.343, 2128.500 3109.031 C 2108.738 3110.390, 2091.696 3110.942, 2075 3110.763 C 2047.385 3110.467, 2046.851 3110.583, 2038.597 3118.674 C 2032.844 3124.313, 2031.046 3129.024, 2031.031 3138.500 C 2031.020 3145.519, 2031.376 3147.122, 2033.931 3151.578 C 2037.447 3157.708, 2042.733 3162.528, 2048.784 3165.122 C 2072.141 3175.134, 2184.321 3168.592, 2265.679 3152.473 C 2330.974 3139.537, 2430.936 3107.021, 2485.873 3080.848 C 2493.778 3077.081, 2500.409 3074, 2500.608 3074 C 2502.561 3074, 2558.778 3044.827, 2582.500 3031.503 C 2605.438 3018.620, 2637.085 2998.572, 2653.500 2986.526 C 2657.350 2983.701, 2664.325 2978.759, 2669 2975.544 C 2698.534 2955.232, 2747.813 2915.553, 2780.931 2885.416 C 2797.854 2870.016, 2849.483 2817.661, 2859.149 2806.098 C 2862.092 2802.577, 2868.550 2795.202, 2873.500 2789.708 C 2881.958 2780.322, 2899.817 2758.483, 2906.500 2749.354 C 2908.150 2747.100, 2913.556 2739.911, 2918.514 2733.378 C 2923.472 2726.845, 2928.776 2719.700, 2930.302 2717.500 C 2931.828 2715.300, 2935.967 2709.450, 2939.501 2704.500 C 2948.631 2691.713, 2963.749 2669.058, 2970.199 2658.500 C 2973.223 2653.550, 2979.852 2642.750, 2984.931 2634.500 C 2995.805 2616.835, 2993.992 2619.909, 3003.808 2602.500 C 3038.080 2541.717, 3064.288 2483.332, 3092.689 2404.500 C 3105 2370.328, 3121.833 2313.747, 3128.836 2283 C 3130.527 2275.575, 3132.905 2265.225, 3134.120 2260 C 3137.008 2247.577, 3137.422 2225.176, 3134.850 2220.500 C 3129.398 2210.589, 3115.187 2202.782, 3106.500 2204.925 M 2613.314 2223.097 C 2593.248 2225.434, 2570.153 2235.478, 2552.858 2249.387 C 2535.364 2263.458, 2525.571 2275.217, 2510.111 2300.716 C 2493.215 2328.584, 2484.855 2359.100, 2484.692 2393.500 C 2484.488 2436.501, 2498.293 2473.859, 2523.438 2498.353 C 2531.427 2506.135, 2544.905 2515.891, 2554.109 2520.555 C 2565.450 2526.302, 2573.486 2528.153, 2589.451 2528.697 C 2606.937 2529.293, 2618.294 2527.806, 2633.024 2522.992 C 2664.905 2512.574, 2691.457 2487.830, 2695.564 2464.710 C 2696.650 2458.600, 2694.399 2452.782, 2688.375 2446.125 C 2681.516 2438.546, 2676.129 2435.863, 2667.673 2435.814 C 2660.012 2435.770, 2659.410 2436.065, 2648.818 2445.067 C 2626.176 2464.310, 2611.469 2469.719, 2594.474 2465.057 C 2570.473 2458.472, 2560.329 2444.288, 2555.418 2410.448 C 2552.875 2392.922, 2555.032 2364.264, 2560.043 2349 C 2564.711 2334.782, 2574.399 2317.258, 2582.179 2308.958 C 2591.496 2299.020, 2603.921 2290.773, 2615.111 2287.099 C 2624.056 2284.163, 2628.043 2283.949, 2635.861 2285.986 C 2644.961 2288.357, 2648.750 2290.083, 2656.502 2295.391 C 2668.494 2303.603, 2675.250 2303.932, 2685.722 2296.813 C 2692.722 2292.054, 2696.182 2285.716, 2698.511 2273.388 C 2699.781 2266.659, 2694.365 2253.075, 2687.149 2244.896 C 2682.137 2239.215, 2664.849 2228.662, 2656.138 2225.965 C 2644.567 2222.383, 2628.611 2221.315, 2613.314 2223.097 M 2378.594 2253.590 C 2375.107 2254.700, 2372.059 2256.792, 2368.053 2260.826 C 2358.205 2270.742, 2358.482 2269.340, 2358.619 2308.500 C 2358.758 2348.266, 2359.467 2358.468, 2365.631 2409.401 C 2371.357 2456.717, 2381.041 2497.200, 2391.129 2516 C 2396.083 2525.231, 2398.998 2528.377, 2405.470 2531.477 C 2412.617 2534.902, 2418.241 2535.451, 2426.510 2533.535 C 2440.736 2530.238, 2447.828 2525.245, 2453.090 2514.822 C 2457.332 2506.418, 2457.064 2500.705, 2451.540 2481.779 C 2442.642 2451.299, 2438.329 2431.329, 2435.064 2405.500 C 2431.126 2374.346, 2428.946 2347.907, 2428.005 2319.875 C 2426.959 2288.757, 2425.965 2281.923, 2420.875 2270.880 C 2417.573 2263.715, 2412.072 2257.673, 2405.864 2254.391 C 2401.188 2251.918, 2385.312 2251.452, 2378.594 2253.590 M 2209.500 2271.590 C 2189.847 2276.355, 2185.139 2277.893, 2175.649 2282.650 C 2168.985 2285.990, 2156.428 2294.396, 2152.150 2298.380 C 2143.745 2306.208, 2134.472 2320.678, 2130.284 2332.500 C 2128.371 2337.900, 2127.683 2342.253, 2127.275 2351.544 C 2126.691 2364.844, 2127.542 2370.511, 2131.680 2380.864 C 2137.206 2394.690, 2144.164 2403.876, 2155.476 2412.281 C 2169.732 2422.872, 2179.812 2427.053, 2223.500 2440.495 C 2249.244 2448.415, 2257.393 2455.529, 2255.463 2468.397 C 2254.415 2475.389, 2251.199 2479.843, 2244.127 2484.096 C 2231.609 2491.626, 2218.912 2492.994, 2203.370 2488.490 C 2192.613 2485.373, 2186.227 2481.763, 2176.260 2473.165 C 2165.914 2464.239, 2159.746 2461.580, 2151.445 2462.469 C 2144.478 2463.215, 2134.702 2467.431, 2131.259 2471.173 C 2130.027 2472.513, 2127.784 2476.509, 2126.276 2480.054 C 2123.934 2485.558, 2123.532 2487.888, 2123.524 2496 C 2123.515 2505.028, 2123.707 2505.885, 2127.371 2513.238 C 2132.254 2523.039, 2137.208 2528.657, 2146.370 2534.784 C 2162.910 2545.847, 2187.614 2552.145, 2214.650 2552.190 C 2232.147 2552.219, 2236.962 2551.709, 2250 2548.447 C 2262.673 2545.277, 2270.369 2542.146, 2280.808 2535.915 C 2295.077 2527.397, 2302.901 2520.224, 2311.279 2507.978 C 2320.999 2493.770, 2324.251 2483.723, 2324.342 2467.612 C 2324.448 2448.967, 2319.776 2434.832, 2308.570 2419.892 C 2301.742 2410.789, 2293.550 2404.397, 2280.500 2397.988 C 2271.204 2393.422, 2248.036 2385.165, 2240 2383.553 C 2226.723 2380.890, 2207.656 2372.997, 2198.795 2366.497 C 2187.517 2358.225, 2190.708 2342.300, 2205.081 2335.117 C 2210.616 2332.351, 2212.288 2332.001, 2219.910 2332.006 C 2230.466 2332.012, 2233.583 2332.840, 2247.500 2339.331 C 2257.444 2343.969, 2259.178 2344.463, 2265.569 2344.481 C 2273.729 2344.503, 2277.107 2342.749, 2283 2335.431 C 2287.485 2329.862, 2289.102 2325.262, 2289.746 2316.240 C 2290.222 2309.570, 2290.008 2308.458, 2287.114 2302.580 C 2282.552 2293.314, 2274.944 2286.181, 2263.217 2280.176 C 2248.753 2272.769, 2244.937 2271.849, 2227 2271.450 C 2218.475 2271.260, 2210.600 2271.323, 2209.500 2271.590 M 1901.173 2292.484 C 1890.177 2295.916, 1882.155 2305.433, 1879.857 2317.775 C 1877.742 2329.129, 1882.740 2449.365, 1886.433 2476 C 1892.597 2520.453, 1900.602 2539.781, 1921.437 2560.521 C 1936.620 2575.635, 1954.860 2583, 1977.108 2583 C 2014.280 2583, 2048.131 2560.044, 2067.057 2522 C 2076.871 2502.272, 2081.553 2481.767, 2085.582 2440.871 C 2087.622 2420.156, 2087.087 2365.146, 2084.640 2344.186 C 2081.085 2313.724, 2072.927 2297.801, 2058.400 2292.967 C 2044.943 2288.489, 2032.454 2291.462, 2022.333 2301.553 C 2014.199 2309.661, 2012.880 2316.628, 2014.957 2340.500 C 2018.967 2386.572, 2019.218 2391.892, 2018.689 2419.500 C 2018.129 2448.693, 2015.790 2472.885, 2012.452 2484 C 2009.882 2492.557, 2001.245 2508.565, 1996.653 2513.281 C 1994.322 2515.675, 1990.360 2518.361, 1987.624 2519.404 C 1983.411 2521.009, 1982.043 2521.104, 1977.567 2520.102 C 1971.199 2518.677, 1965.922 2514.492, 1963.205 2508.713 C 1956.832 2495.156, 1953.340 2463.884, 1952.014 2408.500 C 1950.757 2356.020, 1947.094 2320.612, 1941.732 2309.118 C 1938.395 2301.967, 1930.350 2294.478, 1923.966 2292.583 C 1917.554 2290.678, 1907.105 2290.633, 1901.173 2292.484 M 1780.694 2320.189 C 1768.963 2321.710, 1752.685 2333.738, 1746.931 2345.137 C 1745.305 2348.358, 1738.532 2367.307, 1731.879 2387.247 C 1725.226 2407.186, 1716.260 2432.950, 1711.953 2444.500 C 1707.647 2456.050, 1703.822 2466.738, 1703.453 2468.250 C 1703.085 2469.762, 1702.425 2471, 1701.987 2471 C 1701.549 2471, 1699.747 2468.412, 1697.982 2465.250 C 1696.217 2462.088, 1692.428 2455.900, 1689.563 2451.500 C 1686.697 2447.100, 1680.816 2437.425, 1676.493 2430 C 1665.138 2410.497, 1645.634 2379.694, 1639.379 2371.383 C 1632.469 2362.201, 1627.135 2357.425, 1620.120 2354.135 C 1615.222 2351.839, 1613.215 2351.500, 1604.500 2351.500 C 1595.555 2351.500, 1593.894 2351.798, 1588.752 2354.322 C 1576.519 2360.327, 1567.683 2371.626, 1564.934 2384.781 C 1563.433 2391.962, 1564.157 2405.172, 1567.460 2430.871 C 1572.923 2473.364, 1574.804 2500.122, 1575.448 2544.500 C 1576.054 2586.208, 1576.077 2586.557, 1578.672 2594.736 C 1581.750 2604.438, 1585.487 2609.292, 1593.141 2613.532 C 1598.080 2616.268, 1599.283 2616.500, 1608.500 2616.500 C 1617.514 2616.500, 1618.944 2616.239, 1623.001 2613.854 C 1625.477 2612.398, 1628.245 2610.373, 1629.152 2609.354 C 1632.167 2605.965, 1635.770 2598.566, 1638.032 2591.119 C 1640.199 2583.987, 1640.250 2582.814, 1639.706 2553.130 C 1639.203 2525.660, 1636.883 2489.238, 1635.494 2486.990 C 1634.929 2486.077, 1633.103 2477, 1633.484 2477 C 1634.280 2477, 1642.353 2489.707, 1645.346 2495.669 C 1650.550 2506.039, 1665.924 2528.615, 1672.042 2534.871 C 1674.931 2537.826, 1679.366 2541.161, 1681.897 2542.284 C 1691.202 2546.409, 1708.091 2545.521, 1718.253 2540.372 C 1732.250 2533.279, 1741.082 2519.090, 1752.884 2484.735 C 1760.319 2463.091, 1765.392 2448.623, 1765.735 2448.083 C 1765.881 2447.854, 1766.248 2447.915, 1766.551 2448.218 C 1766.855 2448.521, 1766.298 2453.884, 1765.315 2460.135 C 1763.816 2469.663, 1763.528 2477.966, 1763.533 2511.500 C 1763.539 2548.368, 1763.716 2552.543, 1765.792 2564.828 C 1769.009 2583.856, 1773.725 2592.193, 1784.241 2597.433 C 1791.034 2600.818, 1804.046 2601.077, 1812.292 2597.992 C 1822.455 2594.190, 1830.107 2585.308, 1831.453 2575.752 C 1831.821 2573.141, 1831.643 2561.216, 1831.057 2549.252 C 1830.471 2537.288, 1829.312 2503.425, 1828.481 2474 C 1827.038 2422.914, 1824.600 2369.475, 1823.372 2362 C 1822.182 2354.754, 1818.808 2342.543, 1817.040 2339.087 C 1814.081 2333.301, 1807.116 2326.092, 1801.961 2323.480 C 1795.928 2320.423, 1788.161 2319.221, 1780.694 2320.189" stroke="none" fill="#1dc4fa" fill-rule="evenodd"/></svg>